<mxfile host="65bd71144e">
    <diagram name="cognitive-search-for-ai-enrichment" id="Page-1">
        <mxGraphModel dx="729" dy="467" grid="1" gridSize="10" guides="1" tooltips="1" connect="1" arrows="1" fold="1" page="1" pageScale="1" pageWidth="850" pageHeight="1100" math="0" shadow="0">
            <root>
                <mxCell id="0"/>
                <mxCell id="1" parent="0"/>
                <mxCell id="246" value="" style="rounded=0;whiteSpace=wrap;html=1;" parent="1" vertex="1">
                    <mxGeometry x="20" y="70" width="810" height="510" as="geometry"/>
                </mxCell>
                <mxCell id="qxArfmMU_z32NaRqhNJx-267" value="" style="edgeStyle=orthogonalEdgeStyle;rounded=0;orthogonalLoop=1;jettySize=auto;html=1;" parent="1" source="qxArfmMU_z32NaRqhNJx-265" target="qxArfmMU_z32NaRqhNJx-260" edge="1">
                    <mxGeometry relative="1" as="geometry"/>
                </mxCell>
                <mxCell id="qxArfmMU_z32NaRqhNJx-265" value="Log Store" style="rounded=1;whiteSpace=wrap;html=1;verticalAlign=top;arcSize=7;" parent="1" vertex="1">
                    <mxGeometry x="561" y="373" width="100" height="190" as="geometry"/>
                </mxCell>
                <UserObject label="" tags="Media Common_Icons Web_Site_Map_Shapes Container Connector" id="245">
                    <mxCell parent="1" vertex="1" visible="0">
                        <mxGeometry as="geometry"/>
                    </mxCell>
                </UserObject>
                <mxCell id="qxArfmMU_z32NaRqhNJx-270" value="" style="edgeStyle=orthogonalEdgeStyle;rounded=0;orthogonalLoop=1;jettySize=auto;html=1;" parent="1" source="qxArfmMU_z32NaRqhNJx-245" target="qxArfmMU_z32NaRqhNJx-249" edge="1">
                    <mxGeometry relative="1" as="geometry"/>
                </mxCell>
                <mxCell id="qxArfmMU_z32NaRqhNJx-245" value="" style="image;aspect=fixed;html=1;points=[];align=center;fontSize=12;image=img/lib/azure2/app_services/API_Management_Services.svg;" parent="1" vertex="1">
                    <mxGeometry x="80" y="280" width="65" height="60" as="geometry"/>
                </mxCell>
                <mxCell id="qxArfmMU_z32NaRqhNJx-263" style="edgeStyle=orthogonalEdgeStyle;rounded=0;orthogonalLoop=1;jettySize=auto;html=1;exitX=0.5;exitY=1;exitDx=0;exitDy=0;" parent="1" source="qxArfmMU_z32NaRqhNJx-249" target="qxArfmMU_z32NaRqhNJx-254" edge="1">
                    <mxGeometry relative="1" as="geometry"/>
                </mxCell>
                <mxCell id="qxArfmMU_z32NaRqhNJx-269" style="edgeStyle=orthogonalEdgeStyle;rounded=0;orthogonalLoop=1;jettySize=auto;html=1;exitX=1;exitY=0.5;exitDx=0;exitDy=0;" parent="1" source="qxArfmMU_z32NaRqhNJx-249" edge="1">
                    <mxGeometry relative="1" as="geometry">
                        <mxPoint x="380" y="310" as="targetPoint"/>
                    </mxGeometry>
                </mxCell>
                <mxCell id="qxArfmMU_z32NaRqhNJx-249" value="Policy" style="shape=process;whiteSpace=wrap;html=1;backgroundOutline=1;" parent="1" vertex="1">
                    <mxGeometry x="200" y="280" width="120" height="60" as="geometry"/>
                </mxCell>
                <mxCell id="qxArfmMU_z32NaRqhNJx-252" value="" style="group" parent="1" vertex="1" connectable="0">
                    <mxGeometry x="380" y="130" width="390" height="250" as="geometry"/>
                </mxCell>
                <mxCell id="qxArfmMU_z32NaRqhNJx-251" value="backends" style="rounded=1;whiteSpace=wrap;html=1;verticalAlign=top;arcSize=7;" parent="qxArfmMU_z32NaRqhNJx-252" vertex="1">
                    <mxGeometry width="390" height="210" as="geometry"/>
                </mxCell>
                <mxCell id="qxArfmMU_z32NaRqhNJx-246" value="Azure Open AI&lt;br&gt;Account A&lt;br&gt;gpt-3.5-turbo" style="rounded=0;whiteSpace=wrap;html=1;" parent="qxArfmMU_z32NaRqhNJx-252" vertex="1">
                    <mxGeometry x="33.63636363636364" y="30" width="302.72727272727275" height="60" as="geometry"/>
                </mxCell>
                <mxCell id="qxArfmMU_z32NaRqhNJx-247" value="Azure Open AI&lt;br&gt;Account B&lt;br&gt;gpt-4 and gpt-4-turbo" style="rounded=0;whiteSpace=wrap;html=1;" parent="qxArfmMU_z32NaRqhNJx-252" vertex="1">
                    <mxGeometry x="49.99636363636364" y="85" width="302.72727272727275" height="60" as="geometry"/>
                </mxCell>
                <mxCell id="qxArfmMU_z32NaRqhNJx-248" value="Azure Open AI&lt;br&gt;Account C&lt;br&gt;text-embedding-ada-002" style="rounded=0;whiteSpace=wrap;html=1;" parent="qxArfmMU_z32NaRqhNJx-252" vertex="1">
                    <mxGeometry x="67.27636363636364" y="140" width="302.72727272727275" height="60" as="geometry"/>
                </mxCell>
                <mxCell id="qxArfmMU_z32NaRqhNJx-264" style="edgeStyle=orthogonalEdgeStyle;rounded=0;orthogonalLoop=1;jettySize=auto;html=1;entryX=0;entryY=0.5;entryDx=0;entryDy=0;" parent="1" source="qxArfmMU_z32NaRqhNJx-254" target="qxArfmMU_z32NaRqhNJx-257" edge="1">
                    <mxGeometry relative="1" as="geometry"/>
                </mxCell>
                <mxCell id="qxArfmMU_z32NaRqhNJx-254" value="" style="image;sketch=0;aspect=fixed;html=1;points=[];align=center;fontSize=12;image=img/lib/mscae/Event_Hubs.svg;" parent="1" vertex="1">
                    <mxGeometry x="236" y="443" width="48" height="50" as="geometry"/>
                </mxCell>
                <mxCell id="qxArfmMU_z32NaRqhNJx-266" value="" style="edgeStyle=orthogonalEdgeStyle;rounded=0;orthogonalLoop=1;jettySize=auto;html=1;entryX=0;entryY=0.5;entryDx=0;entryDy=0;" parent="1" source="qxArfmMU_z32NaRqhNJx-257" target="qxArfmMU_z32NaRqhNJx-265" edge="1">
                    <mxGeometry relative="1" as="geometry"/>
                </mxCell>
                <mxCell id="qxArfmMU_z32NaRqhNJx-257" value="Log Parser" style="shape=process;whiteSpace=wrap;html=1;backgroundOutline=1;" parent="1" vertex="1">
                    <mxGeometry x="370" y="438" width="120" height="60" as="geometry"/>
                </mxCell>
                <mxCell id="qxArfmMU_z32NaRqhNJx-258" value="" style="image;sketch=0;aspect=fixed;html=1;points=[];align=center;fontSize=12;image=img/lib/mscae/Application_Insights.svg;" parent="1" vertex="1">
                    <mxGeometry x="593" y="405" width="32" height="50" as="geometry"/>
                </mxCell>
                <mxCell id="qxArfmMU_z32NaRqhNJx-259" value="" style="image;aspect=fixed;html=1;points=[];align=center;fontSize=12;image=img/lib/azure2/databases/Azure_Cosmos_DB.svg;" parent="1" vertex="1">
                    <mxGeometry x="577" y="486" width="64" height="64" as="geometry"/>
                </mxCell>
                <mxCell id="qxArfmMU_z32NaRqhNJx-260" value="" style="verticalLabelPosition=bottom;sketch=0;aspect=fixed;html=1;verticalAlign=top;strokeColor=none;align=center;outlineConnect=0;shape=mxgraph.citrix.reporting;" parent="1" vertex="1">
                    <mxGeometry x="725" y="433.5" width="61.5" height="69" as="geometry"/>
                </mxCell>
                <mxCell id="qxArfmMU_z32NaRqhNJx-261" value="subscription keys" style="image;aspect=fixed;html=1;points=[];align=center;fontSize=12;image=img/lib/azure2/security/Key_Vaults.svg;" parent="1" vertex="1">
                    <mxGeometry x="70" y="340" width="30" height="30" as="geometry"/>
                </mxCell>
                <mxCell id="qxArfmMU_z32NaRqhNJx-262" value="Key Vaults" style="image;aspect=fixed;html=1;points=[];align=center;fontSize=12;image=img/lib/azure2/security/Key_Vaults.svg;" parent="1" vertex="1">
                    <mxGeometry x="235" y="100" width="50" height="50" as="geometry"/>
                </mxCell>
                <mxCell id="qxArfmMU_z32NaRqhNJx-268" style="edgeStyle=orthogonalEdgeStyle;rounded=0;orthogonalLoop=1;jettySize=auto;html=1;exitX=0.5;exitY=0;exitDx=0;exitDy=0;" parent="1" source="qxArfmMU_z32NaRqhNJx-249" edge="1">
                    <mxGeometry relative="1" as="geometry">
                        <mxPoint x="260" y="180" as="targetPoint"/>
                    </mxGeometry>
                </mxCell>
                <mxCell id="qxArfmMU_z32NaRqhNJx-271" style="edgeStyle=orthogonalEdgeStyle;rounded=0;orthogonalLoop=1;jettySize=auto;html=1;exitX=0.5;exitY=1;exitDx=0;exitDy=0;entryX=0.5;entryY=0;entryDx=0;entryDy=0;" parent="1" target="qxArfmMU_z32NaRqhNJx-273" edge="1">
                    <mxGeometry relative="1" as="geometry">
                        <mxPoint x="430" y="498" as="sourcePoint"/>
                    </mxGeometry>
                </mxCell>
                <mxCell id="qxArfmMU_z32NaRqhNJx-272" value="" style="html=1;verticalLabelPosition=bottom;align=center;labelBackgroundColor=#ffffff;verticalAlign=top;strokeWidth=2;strokeColor=#0080F0;shadow=0;dashed=0;shape=mxgraph.ios7.icons.locked;" parent="1" vertex="1">
                    <mxGeometry x="340" y="535" width="24" height="30" as="geometry"/>
                </mxCell>
                <mxCell id="qxArfmMU_z32NaRqhNJx-273" value="Content Safety" style="rounded=0;whiteSpace=wrap;html=1;" parent="1" vertex="1">
                    <mxGeometry x="370" y="533" width="120" height="35" as="geometry"/>
                </mxCell>
            </root>
        </mxGraphModel>
    </diagram>
</mxfile>